<svg xmlns="http://www.w3.org/2000/svg" viewBox="0 0 24 24" fill="#000000">
  <path d="M11.667 3.9c-.333-.333-.5-.667-.5 1.167s-1 1.667-1 2.5c0 .667 0 1.333.5 2s1.5.667 1.5 1.5c.333 1.167.333 2.167-.333 3.167-.5.833-1.333 1.333-2.167 1.333-.667 0-1.333-.5-1.5-1.167-.333-.833-.333-1.667.167-2.5l.333-.333c.333-.333.5-1 .333-1.333-.167-.5-.667-.833-1.167-.833-.667 0-1.167.5-1.333 1.167-.167.833-.167 1.667.167 2.5.5.833 1.333 1.5 2.333 1.5 1.167 0 2.167-.667 2.833-1.5.333-.5.667-1.167.833-1.833.167-.667.333-1.333.667-2 .333-.5.667-1 1-1.333.333-.5.333-1 .167-1.5-.333-.667-.833-1-1.333-1.167-.667-.167-1.167.167-1.5.667l-.333.333z"/>
  <path d="M7 19h10l-4-9H11l-4 9zM19 19c0 .552-.448 1-1 1H6c-.552 0-1-.448-1-1 0-.552.448-1 1-1h12c.552 0 1 .448 1 1z"/>
</svg>
