<svg role="img" viewBox="0 0 24 24" xmlns="http://www.w3.org/2000/svg" fill="#FFFFFF"><title>OpenAI</title><path d="M22.2819 9.8211a5.9847 5.9847 0 0 0-.5157-4.9108 6.0462 6.0462 0 0 0-6.5098-2.9A6.0651 6.0651 0 0 0 4.9807 4.1818a5.9847 5.9847 0 0 0-3.9977 2.9 6.0462 6.0462 0 0 0 .7427 7.0966 5.98 5.98 0 0 0 .511 4.9107 6.051 6.051 0 0 0 6.5146 2.9001A5.9847 5.9847 0 0 0 13.2599 24a6.0557 6.0557 0 0 0 5.7718-4.2058 5.9894 5.9894 0 0 0 3.9977-2.9001 6.0557 6.0557 0 0 0-.7475-7.073ZM11.2612 2.3653a4.7932 4.7932 0 0 1 2.9904 1.196 4.8153 4.8153 0 0 1 1.7056 2.052L10.3204 8.4414 7.647 3.8236a4.8036 4.8036 0 0 1 3.6142-1.4583Zm-3.8152 2.373a4.8049 4.8049 0 0 1 1.6366-2.0911l5.6373 2.8277-2.671 4.6293-5.2662-3.0336a4.814 4.814 0 0 1 0.6633-2.3323Zm-2.3312 6.5919a4.8036 4.8036 0 0 1 .6653-2.3303l2.671 4.6293-2.9734 5.1587a4.8036 4.8036 0 0 1-1.6384-2.0917 4.8153 4.8153 0 0 1 1.2755-5.366Zm5.6358 8.0076a4.7932 4.7932 0 0 1-2.9904-1.196 4.8153 4.8153 0 0 1-1.7056-2.052l5.6367-2.828 2.6734 4.6178a4.8036 4.8036 0 0 1-3.6141 1.4582Zm3.8152-2.373a4.8049 4.8049 0 0 1-1.6366 2.0911l-5.6373-2.8277 2.671-4.6293 5.2662 3.0336a4.814 4.814 0 0 1-.6633 2.3323Zm2.3312-6.5919a4.8036 4.8036 0 0 1-.6653 2.3303l-2.671-4.6293 2.9734-5.1587a4.8036 4.8036 0 0 1 1.6384 2.0917 4.8153 4.8153 0 0 1-1.2755 5.366ZM12 7.025a1.865 1.865 0 1 1-1.875 1.865A1.87 1.87 0 0 1 12 7.025Z"/></svg>
